<svg xmlns="http://www.w3.org/2000/svg" viewBox="0 0 140 44" width="70" height="22">
  <path d="M69.953 17.343a2.842 2.842 0 0 0-2.851-2.834c-1.582 0-2.829 1.26-2.829 2.834a2.795 2.795 0 0 0 2.829 2.823 2.813 2.813 0 0 0 2.851-2.823zm-11.8 5.49v.732a6.9 6.9 0 0 0-.131-1.37l-4.114-12.735h-3.759l-4.175 12.609a8.542 8.542 0 0 0-.191 1.495v-.732h-5.981v17.335h3.85V25.667h4.346c.186 3.123 1.443 6.071 3.571 8.409 1.81 1.942 4.336 3.112 7.021 3.265v-3.533c-1.753-.134-3.41-.925-4.63-2.205a9.295 9.295 0 0 1-2.271-4.68l-.24-1.256.989-.931c.926-.87 1.715-1.873 2.34-2.972a10.997 10.997 0 0 0 1.353-5.234v2.803h6.022zm74.239-8.324h-3.85v17.659h3.85V14.508zm-57.33 0v17.66h3.85v-8.324h7.83v-3.265h-7.83v-2.803h9.051v-3.266H75.06v-.002zm38.264 0h-3.85v17.659h13.272v-3.265h-9.422V14.508zm-23.517 0h-11.8v3.266h3.976v14.395h3.85V17.774h3.974v-3.266zm36.682 14.395c-2.33 0-4.238-1.889-4.238-4.217 0-2.327 1.908-4.216 4.238-4.216 2.329 0 4.235 1.889 4.235 4.216 0 2.328-1.906 4.217-4.235 4.217zm0-11.719c-4.157 0-7.528 3.368-7.528 7.502 0 4.142 3.37 7.503 7.528 7.503 4.155 0 7.526-3.36 7.526-7.503 0-4.134-3.371-7.502-7.526-7.502zM77.971 28.9c-2.329 0-4.235-1.889-4.235-4.217 0-2.327 1.906-4.216 4.235-4.216 2.33 0 4.237 1.889 4.237 4.216 0 2.328-1.907 4.217-4.237 4.217zm0-11.719c-4.154 0-7.525 3.368-7.525 7.502 0 4.142 3.371 7.503 7.525 7.503 4.157 0 7.529-3.36 7.529-7.503 0-4.134-3.372-7.502-7.529-7.502z" fill="#FF5A5F"/>
  <path d="M41.376 14.603s-.26-.648-.509-1.114c-.316-.583-.673-1.13-1.068-1.634a7.894 7.894 0 0 0-1.659-1.544c-.63-.432-1.307-.782-2.017-1.039a8.336 8.336 0 0 0-4.361-.113 8.718 8.718 0 0 0-1.996.758c-.624.331-1.204.748-1.723 1.24a8.989 8.989 0 0 0-1.398 1.651 9.968 9.968 0 0 0-.994 1.955c-.248.689-.41 1.407-.481 2.137-.064.73-.036 1.466.085 2.188.117.684.301 1.354.549 2.002.24.633.542 1.24.902 1.812 0 0 4.371 7.388 5.726 9.685.489.831.841 1.43.9 1.539.134.24.304.454.504.634.181.164.386.297.606.396.206.093.427.149.652.165.2.023.402.008.598-.042.22-.061.424-.168.597-.316.173-.148.323-.325.44-.523a1.493 1.493 0 0 0 .077-.171s.378-.729.876-1.696c1.381-2.694 5.789-11.288 5.789-11.288.339-.559.622-1.152.845-1.771.237-.659.412-1.34.52-2.033.115-.721.141-1.455.078-2.185a9.736 9.736 0 0 0-.486-2.139 9.86 9.86 0 0 0-1.011-1.962 9.084 9.084 0 0 0-3.169-2.901 8.665 8.665 0 0 0-1.999-.758 8.311 8.311 0 0 0-4.361.113 8.05 8.05 0 0 0-2.017 1.039 7.89 7.89 0 0 0-1.658 1.544 8.12 8.12 0 0 0-1.069 1.634c-.248.466-.509 1.114-.509 1.114-.204.464-.201.996.01 1.457.21.461.604.82 1.085.985.481.166 1.009.13 1.449-.098a1.56 1.56 0 0 0 .707-.851l.391-.917c.07-.163.16-.317.265-.46a3.12 3.12 0 0 1 .381-.505 3.565 3.565 0 0 1 .507-.451c.186-.131.382-.246.587-.342.205-.095.419-.169.637-.22.222-.056.448-.085.674-.089a3.87 3.87 0 0 1 1.364.217c.21.077.412.174.603.29.189.116.367.249.532.397.164.151.314.317.448.494.135.18.253.374.351.578.1.207.181.424.24.648.061.229.097.463.108.699.01.231-.4.461-.042.69-.37.23-.1.454-.186.672a6.367 6.367 0 0 1-.319.628c-.123.211-.26.412-.408.602-.156.189-.327.365-.51.526a38.225 38.225 0 0 1-1.848 2.664c-.611.849-1.236 1.688-1.874 2.516-.655.841-1.32 1.673-1.996 2.495l-.162.198c-.5.062-.104.121-.164.177-.62.058-.134.101-.21.128a.484.484 0 0 1-.453-.034.503.503 0 0 1-.15-.139l-.158-.271c-.632-.821-1.298-1.653-1.954-2.495-.645-.809-1.278-1.631-1.9-2.46-.309-.411-.615-.825-.919-1.24l-.915-1.244a6.026 6.026 0 0 1-.51-.879c-.145-.3-.26-.616-.342-.942a4.366 4.366 0 0 1-.126-1.007 4.6 4.6 0 0 1 .074-1.013c.05-.332.138-.657.258-.969.12-.304.273-.594.456-.863.178-.26.383-.498.612-.712.23-.211.484-.395.753-.547a4.19 4.19 0 0 1 1.718-.481c.292.007.582.049.865.124.279.074.548.182.801.321.249.138.48.306.688.5.204.189.385.403.54.637.149.23.272.477.364.736.87.254.145.516.173.783.24.27.018.542-.017.809-.36.264-.1.521-.193.768-.87.249-.2.487-.335.712.239-.449.577-.8 1-1.046.422-.246.884-.411 1.361-.484a4.198 4.198 0 0 1 1.456.039c.473.102.922.281 1.325.53.394.24.74.546 1.023.904.277.35.493.745.641 1.17.149.43.23.884.236 1.343a6.95 6.95 0 0 1-.084 1.136 8.565 8.565 0 0 1-.262 1.111c-.177.598-.435 1.168-.764 1.7-.344.545-.743 1.055-1.19 1.521 0 0-.519.536-1.324 1.297-.95.895-3.12 2.855-3.12 2.855-1.14.968-2.335 1.867-3.578 2.688-1.176.803-2.541 1.175-3.927 1.066a6.813 6.813 0 0 1-1.836-.38 7.31 7.31 0 0 1-1.685-.853 7.667 7.667 0 0 1-1.44-1.242 8.768 8.768 0 0 1-1.106-1.549 8.808 8.808 0 0 1-.724-1.681 9.157 9.157 0 0 1-.365-1.783 10.088 10.088 0 0 1-.002-3.685c.108-.61.265-1.21.465-1.794.2-.579.447-1.138.737-1.674.29-.531.618-1.036.98-1.513.348-.473.732-.913 1.15-1.315.419-.403.87-.769 1.347-1.093.475-.324.974-.606 1.493-.842a10.571 10.571 0 0 1 3.288-.867 11.203 11.203 0 0 1 3.41.192c.562.113 1.114.274 1.65.482.534.208 1.048.464 1.538.765a11.498 11.498 0 0 1 2.71 2.1c.4.423.783.861 1.078 1.35l.834 1.371a1.56 1.56 0 0 0 .707.851c.44.228.968.264 1.45.098a1.56 1.56 0 0 0 1.085-.985 1.56 1.56 0 0 0 .013-1.456z" fill="#FF5A5F"/>
</svg>