<svg xmlns="http://www.w3.org/2000/svg" viewBox="0 0 170 32" width="85" height="16">
  <path d="M0 8.795V22.063h4.304c2.692.075 5.346-.626 7.633-2.016 1.935-1.327 2.911-3.514 2.562-5.733-.242-2.006-1.443-3.799-3.242-4.842-2.254-1.257-4.82-1.829-7.399-1.655L0 8.795zm2.974 2.429h1.53c1.622-.089 3.223.334 4.59 1.214 1.026.73 1.666 1.901 1.722 3.167.099 1.38-.538 2.716-1.646 3.465-1.35.905-2.954 1.338-4.565 1.237H2.973V11.224zm16.676-2.44v13.27h2.81v-3.934h2.068c1.294.089 2.573-.308 3.584-1.107l1.162-1.293c.616-.97.922-2.092.873-3.227.007-1.13-.396-2.224-1.136-3.087-.822-.895-1.843-1.574-2.987-1.972-1.285-.391-2.622-.535-3.947-.427l-2.427.778zm2.81 2.42h1.55c.88-.039 1.76.087 2.585.373.659.267 1.188.779 1.484 1.439.327.73.327 1.567 0 2.296-.267.623-.75 1.128-1.36 1.422-.822.324-1.706.467-2.59.418H22.46v-5.948zm11.017-2.429v13.27h10.41V19.62h-7.608v-3.407h6.245v-2.427h-6.245v-2.153h7.236V9.209l-10.037-.064v-.01zm23.378.046l-5.685 13.232h3.027l1.2-2.837h5.868l1.147 2.837h3.097l-5.719-13.232h-2.935zm1.43 3.191l1.964 4.759h-3.966l2.001-4.76zm10.57-3.227v13.27h2.82v-5.358h1.775l3.874 5.358h3.538l-4.136-5.757c.974-.307 1.834-.9 2.464-1.7.587-.82.869-1.812.803-2.809.03-1.251-.481-2.454-1.402-3.307-.92-.853-2.147-1.296-3.413-1.23l-2.81-.03-3.513.564zm2.82 2.407h1.618c.635-.037 1.266.108 1.803.417.43.303.675.813.651 1.347.036.519-.192 1.02-.61 1.347-.538.326-1.16.478-1.788.436h-1.674v-3.547zm10.98-2.407v13.27h10.418V19.62h-7.608v-3.407h6.245v-2.427h-6.245v-2.153h7.234V9.209l-10.043-.064zm23.374.046l-5.675 13.232h3.022l1.2-2.837h5.87l1.144 2.837h3.098l-5.72-13.232h-2.94zm1.43 3.191l1.971 4.759h-3.976l2.005-4.76zm23.636-3.191h-3.112l-3.044 5.138-3.097-5.138h-3.126l4.829 7.747v5.522h2.811v-5.522l4.739-7.747zm-78.715.01l-6.158 13.223h3.022l1.2-2.837h5.885l1.147 2.837h3.097l-5.722-13.232-2.47.01zm1.439 3.19l1.964 4.76h-3.966l2.002-4.76zm30.331-3.246c-1.358-.014-2.705.244-3.956.759-1.11.49-2.078 1.25-2.815 2.207-.767 1.007-1.17 2.251-1.15 3.525-.04 1.178.313 2.338 1.006 3.3.7.965 1.683 1.706 2.819 2.12 1.293.464 2.663.669 4.032.604 1.237-.006 2.465-.193 3.643-.55.931-.29 1.77-.795 2.446-1.472.599-.602 1.038-1.338 1.282-2.143.206-.705.311-1.437.31-2.172.032-1.276-.388-2.523-1.188-3.517-.785-.923-1.799-1.615-2.928-1.998-1.152-.448-2.368-.671-3.592-.663h-.91zm.037 2.837c.817-.03 1.63.122 2.384.445.612.282 1.134.725 1.511 1.284.365.587.555 1.266.547 1.958-.057 1.011-.582 1.935-1.42 2.492-.88.565-1.913.85-2.96.817-.824.02-1.642-.124-2.403-.422-.61-.28-1.133-.722-1.511-1.28-.364-.588-.554-1.27-.545-1.963.058-1.013.582-1.936 1.42-2.492.88-.571 1.916-.858 2.966-.819l.011-.02z" fill="#003580"/>
</svg>