<svg xmlns="http://www.w3.org/2000/svg" width="85" height="25" viewBox="0 0 112 33">
  <path d="M2.184 7.78h5.724l6.428 17.516h-5.484l-.972-3.08H2.348l-.972 3.08H0L2.184 7.78zm-3.32 10.62h4.208l-2.06-6.48-2.148 6.48zm20.508-10.62h13.496V11h-8.976v3.256h7.52v3.4h-7.52v3.496h9.016v4.144H19.372V7.78zm18.096 0h4.496l2.552 4.984 2.58-4.984h4.496v17.516h-4.52V13.408L42.32 18.52h-.028l-4.724-5.112v11.888h-4.52V7.78h4.42zm20.012 0h4.496v9.872c0 1.14.252 2 .756 2.58.504.56 1.22.84 2.148.84.928 0 1.644-.28 2.148-.84.504-.58.756-1.44.756-2.58V7.78h4.496v9.872c0 1.288-.172 2.4-.516 3.332a6.432 6.432 0 01-1.484 2.3c-.644.616-1.412 1.072-2.304 1.368-.872.296-1.836.444-2.892.444-1.056 0-2.028-.148-2.916-.444-.888-.296-1.664-.752-2.328-1.368a6.16 6.16 0 01-1.484-2.3c-.344-.932-.516-2.044-.516-3.332V7.78h3.64zm21.196 0h4.524v10.648l6.752-10.648h4.18v17.516h-4.52V14.648l-6.752 10.648h-4.184V7.78zm24.988 0h9.996c.784 0 1.512.128 2.184.384.672.256 1.252.616 1.74 1.08a4.68 4.68 0 011.12 1.62c.264.616.396 1.3.396 2.052 0 1.12-.244 2.048-.732 2.776-.488.728-1.18 1.3-2.076 1.716l3.464 7.888h-4.936L110.408 18h-2.484v7.296h-4.52V7.78zm4.52 7.296h4.276c.336 0 .632-.148.888-.444.256-.296.384-.664.384-1.104 0-.44-.128-.808-.384-1.104-.256-.296-.552-.444-.888-.444h-4.276v3.096z" fill="#00487C"/>
</svg>